<svg width="16" height="16" viewBox="0 0 16 16" fill="none" xmlns="http://www.w3.org/2000/svg">
<path fill-rule="evenodd" clip-rule="evenodd" d="M8 0C3.58172 0 0 3.58172 0 8C0 12.4183 3.58172 16 8 16C12.4183 16 16 12.4183 16 8C16 3.58172 12.4183 0 8 0ZM10.25 6.25C10.25 7.49219 9.24219 8.5 8 8.5C6.75781 8.5 5.75 7.49219 5.75 6.25C5.75 5.00781 6.75781 4 8 4C9.24219 4 10.25 5.00781 10.25 6.25ZM9.13906 9H10C11.1047 9 12 9.89531 12 11V11.25C12 11.6641 11.6641 12 11.25 12H4.75C4.33594 12 4 11.6641 4 11.25V11C4 9.89531 4.89531 9 6 9H6.86094C7.20938 9.15938 7.59375 9.25 8 9.25C8.40625 9.25 8.79219 9.15938 9.13906 9Z" fill="#BFBFBF"/>
</svg>
